#!OML:ASF X:\für Bonn\!DataBase\2005_08_12_Daniel\c3d\Daniel.ASF
:FULLY-SPECIFIED
:DEGREES
83
root 0.736618 6.30986 -0.878984 85.0509 -87.7348 -115.503
lowerback 61.2267 -4.41415 7.21007
upperback 2.47436 -2.64293 -2.81859
thorax -19.5804 -2.15457 -4.84195
lowerneck 8.29812 1.72649 -2.17508
upperneck -4.92263 2.06566 0.0821251
head -3.06317 1.06546 0.299643
rclavicle -2.98177e-015 4.37326e-015
rhumerus 70.26 2.54427 -89.5126
rradius 8.92962
rwrist 50.2799
rhand -19.484 10.6041
rfingers 7.12502
rthumb 6.83795 -19.2655
lclavicle -2.98177e-015 4.37326e-015
lhumerus 67.3911 1.16159 90.8716
lradius 11.5879
lwrist -63.7341
lhand -19.3113 -3.28865
lfingers 7.12502
lthumb 7.00469 26.5754
rfemur 24.8202 -54.799 -141.727
rtibia 157.373
rfoot -73.0883 80.679
rtoes -4.28338
lfemur 13.1912 71.7821 126.573
ltibia 156.293
lfoot -31.6655 -71.5147
ltoes -0.130759
84
root 0.741621 6.27977 -0.869491 85.5113 -87.6912 -115.999
lowerback 61.2083 -4.47767 7.29052
upperback 2.54342 -2.68329 -2.84864
thorax -19.4952 -2.17543 -4.88994
lowerneck 8.33116 1.74142 -2.26716
upperneck -4.94012 2.07556 0.102379
head -3.07731 1.0715 0.3215
rclavicle -8.05078e-015 -2.10712e-014
rhumerus 69.8113 2.54615 -89.5367
rradius 9.37112
rwrist 49.6781
rhand -19.4384 10.7889
rfingers 7.12502
rthumb 6.88194 -19.0792
lclavicle -8.05078e-015 -2.10712e-014
lhumerus 67.0619 1.40945 91.4957
lradius 11.7487
lwrist -64.3676
lhand -19.447 -3.56694
lfingers 7.12502
lthumb 6.87368 26.3015
rfemur 24.5834 -55.0041 -142.025
rtibia 157.545
rfoot -72.1121 81.3208
rtoes -4.18042
lfemur 14.0319 71.674 128.039
ltibia 156.55
lfoot -31.7148 -71.8823
ltoes -0.0531999
85
root 0.747036 6.27266 -0.860926 86.056 -87.6586 -116.543
lowerback 61.1748 -4.53318 7.3696
upperback 2.62188 -2.72012 -2.89262
thorax -19.3985 -2.19449 -4.95636
lowerneck 8.34274 1.72972 -2.28418
upperneck -4.98205 2.05529 0.0714167
head -3.09349 1.06326 0.31524
rclavicle 9.93923e-017 -2.82274e-014
rhumerus 69.4315 2.5319 -89.5761
rradius 9.73461
rwrist 49.2108
rhand -19.3906 10.9175
rfingers 7.12502
rthumb 6.92809 -18.9492
lclavicle 9.93923e-017 -2.82274e-014
lhumerus 66.7918 1.44042 91.5351
lradius 11.8898
lwrist -64.552
lhand -19.4741 -3.6829
lfingers 7.12502
lthumb 6.84753 26.1864
rfemur 24.536 -55.2609 -142.033
rtibia 157.561
rfoot -70.0613 81.6728
rtoes -4.12129
lfemur 14.6555 71.5616 128.845
ltibia 156.638
lfoot -32.1201 -72.0189
ltoes 0.000587771
86
root 0.753968 6.29131 -0.853331 85.7268 -87.6341 -116.172
lowerback 61.1837 -4.60843 7.44807
upperback 2.64413 -2.76893 -2.93353
thorax -19.3773 -2.21853 -5.01209
lowerneck 8.42575 1.72715 -2.36531
upperneck -5.02999 2.04056 0.0798541
head -3.12708 1.05753 0.332195
rclavicle -1.05356e-014 -2.38542e-015
rhumerus 69.0745 2.54498 -89.6268
rradius 9.95532
rwrist 49.0851
rhand -19.3791 11.0149
rfingers 7.12502
rthumb 6.93917 -18.8514
lclavicle -1.05356e-014 -2.38542e-015
lhumerus 66.5291 1.19364 90.6891
lradius 11.9342
lwrist -63.9103
lhand -19.4742 -3.70354
lfingers 7.12502
lthumb 6.8474 26.1657
rfemur 24.674 -55.5635 -141.66
rtibia 157.387
rfoot -66.8669 81.7083
rtoes -4.09858
lfemur 14.81 71.5409 128.689
ltibia 156.529
lfoot -32.2352 -71.9486
ltoes 0.0913339
87
root 0.760456 6.33371 -0.847514 86.0223 -87.6224 -116.37
lowerback 61.1486 -4.63804 7.46456
upperback 2.672 -2.80345 -2.95352
thorax -19.3453 -2.23243 -5.0247
lowerneck 8.46454 1.73082 -2.40198
upperneck -5.07969 2.03672 0.0374877
head -3.15156 1.05836 0.324553
rclavicle -1.71949e-014 -9.54166e-015
rhumerus 68.8421 2.57908 -89.6663
rradius 10.017
rwrist 49.2076
rhand -19.3436 11.0514
rfingers 7.12502
rthumb 6.97345 -18.8138
lclavicle -1.71949e-014 -9.54166e-015
lhumerus 66.3134 0.748631 89.1456
lradius 11.9256
lwrist -62.6875
lhand -19.4407 -3.63586
lfingers 7.12502
lthumb 6.87973 26.2324
rfemur 25.0451 -55.9004 -141.039
rtibia 157.057
rfoot -63.0827 81.4245
rtoes -4.06288
lfemur 14.8776 71.4898 128.019
ltibia 156.247
lfoot -32.7569 -71.7078
ltoes 0.280819
